<?xml version="1.0" encoding="UTF-8" standalone="no"?>
<svg
   xmlns:dc="http://purl.org/dc/elements/1.1/"
   xmlns:cc="http://creativecommons.org/ns#"
   xmlns:rdf="http://www.w3.org/1999/02/22-rdf-syntax-ns#"
   xmlns:svg="http://www.w3.org/2000/svg"
   xmlns="http://www.w3.org/2000/svg"
   xmlns:sodipodi="http://sodipodi.sourceforge.net/DTD/sodipodi-0.dtd"
   xmlns:inkscape="http://www.inkscape.org/namespaces/inkscape"
   version="1.1"
   x="0px"
   y="0px"
   viewBox="0 0 40 40"
   enable-background="new 0 0 52 52"
   xml:space="preserve"
   id="svg18"
   sodipodi:docname="fruit.svg"
   width="40"
   height="40"
   inkscape:version="0.92.3 (5aff6ba, 2018-11-25)"><metadata
     id="metadata24"><rdf:RDF><cc:Work
         rdf:about=""><dc:format>image/svg+xml</dc:format><dc:type
           rdf:resource="http://purl.org/dc/dcmitype/StillImage" /><dc:title></dc:title></cc:Work></rdf:RDF></metadata><defs
     id="defs22" /><sodipodi:namedview
     pagecolor="#ffffff"
     bordercolor="#666666"
     borderopacity="1"
     objecttolerance="10"
     gridtolerance="10"
     guidetolerance="10"
     inkscape:pageopacity="0"
     inkscape:pageshadow="2"
     inkscape:window-width="1853"
     inkscape:window-height="1025"
     id="namedview20"
     showgrid="false"
     inkscape:zoom="3.6307692"
     inkscape:cx="26"
     inkscape:cy="32.5"
     inkscape:window-x="67"
     inkscape:window-y="27"
     inkscape:window-maximized="1"
     inkscape:current-layer="svg18" /><g
     id="g12"
     transform="matrix(0.79165331,0,0,0.79165331,-0.58298535,-0.58298536)"><path
       d="M 38.491768,13.388651 27.747629,24.719217 42.813057,24.143045 C 42.631416,20.173319 41.121651,16.417459 38.491768,13.388651 Z"
       id="path2"
       inkscape:connector-curvature="0" /><path
       d="m 26.428293,28.145365 0.586914,14.590452 c 3.845703,-0.537109 7.404234,-2.235779 10.197203,-4.869568 z"
       id="path4"
       inkscape:connector-curvature="0" /><path
       d="m 13.665598,39.569801 c 3.283203,2.285157 7.28418,3.470703 11.354492,3.337891 L 24.42927,28.218729 Z"
       id="path6"
       inkscape:connector-curvature="0" /><path
       d="M 49.979622,24.410379 C 49.649605,16.270365 45.669624,8.1904087 39.069649,2.260416 38.659615,1.8903597 38.049629,1.920389 37.669624,2.3104038 L 2.2696018,39.750404 c -0.1799927,0.200013 -0.2799683,0.459961 -0.2699585,0.729981 0.00995,0.270019 0.1300049,0.520019 0.3299561,0.700012 6.3300171,5.690003 14.2400516,8.820007 22.2900386,8.820007 7.459959,0 14.159972,-2.75 18.889952,-7.75 4.450012,-4.700012 6.740051,-11.040037 6.470032,-17.840025 z m -5.14801,0.702393 -6.1e-5,1.83e-4 c -0.03723,4.984619 -1.969849,9.744627 -5.440369,13.4046 -3.464844,3.654297 -8.16992,5.900879 -13.248045,6.327149 -0.582031,0.04883 -1.173828,0.07324 -1.757813,0.07324 -4.660156,0 -9.220703,-1.574219 -12.841796,-4.433106 -0.219727,-0.173828 -0.357422,-0.432617 -0.376954,-0.71289 -0.02051,-0.280274 0.07813,-0.556153 0.271485,-0.759766 L 24.607981,25.124002 37.776924,11.235819 c 0.1875,-0.197754 0.447266,-0.310059 0.71875,-0.312012 0.0029,0 0.0049,0 0.0068,0 0.269531,0 0.52832,0.108887 0.716797,0.302735 3.659057,3.760131 5.652222,8.691467 5.612305,13.88562 v 1.22e-4 1.83e-4 z"
       id="path8"
       inkscape:connector-curvature="0" /><path
       d="m 27.831858,26.717386 10.759702,9.698912 c 2.481385,-2.913513 3.947083,-6.498411 4.200989,-10.270811 l -10.05133,0.384155 z"
       id="path10"
       inkscape:connector-curvature="0" /></g></svg>